<svg width="21" height="22" viewBox="0 0 21 22" fill="none" xmlns="http://www.w3.org/2000/svg">
<path opacity="0.9" fill-rule="evenodd" clip-rule="evenodd" d="M15.5838 11C15.5875 11 15.5912 10.9991 15.5949 10.9991C15.6489 12.7333 16.4198 14.3752 17.7527 15.4926C18.2119 15.8784 18.4228 16.4698 18.2999 17.0619C18.1414 17.8273 17.4053 18.3334 16.6243 18.3334H1.70556C0.961157 18.3334 0.251669 17.875 0.057303 17.1573C-0.109537 16.5403 0.0967469 15.9078 0.561514 15.5109C1.95582 14.3321 2.75057 12.6197 2.75057 10.8056V8.24998C2.75057 4.70607 5.62344 1.83337 9.16718 1.83337C9.3743 1.83337 9.57874 1.84529 9.78049 1.86443C9.39092 2.69124 9.16718 3.6107 9.16718 4.58337C9.16718 8.12158 12.0464 11 15.5838 11ZM12.535 19.25C12.2161 20.8165 10.8274 22 9.16718 22C7.50718 22 6.11841 20.8165 5.79934 19.25H12.535Z" fill="#AFB7C6"/>
<path d="M20.1671 4.58339C20.1671 7.11469 18.1152 9.16661 15.5837 9.16661C13.0524 9.16661 11.0005 7.11469 11.0005 4.58339C11.0005 2.05209 13.0524 0 15.5837 0C18.1152 0 20.1671 2.05209 20.1671 4.58339Z" fill="url(#paint0_linear)"/>
<defs>
<linearGradient id="paint0_linear" x1="20.1671" y1="4.57643" x2="11.1119" y2="4.57643" gradientUnits="userSpaceOnUse">
<stop offset="0.292818" stop-color="#62BE55"/>
<stop offset="0.779006" stop-color="#1FAC79"/>
</linearGradient>
</defs>
</svg>
