<svg width="169" height="56" viewBox="0 0 169 56" fill="none" xmlns="http://www.w3.org/2000/svg">
<rect x="4.28467" y="3.14224" width="17.1386" height="1.07116" rx="0.535582" fill="#36B26C"/>
<rect x="4.28467" y="0.999969" width="17.1386" height="1.07116" rx="0.535582" fill="#36B26C"/>
<rect x="2.81909" y="19.5398" width="19.6119" height="1.84014" rx="0.920071" fill="#36B26C"/>
<rect x="2.81909" y="23.5682" width="19.6119" height="1.84014" rx="0.920071" fill="#36B26C"/>
<rect x="2.81909" y="27.5966" width="19.6119" height="1.84014" rx="0.920071" fill="#36B26C"/>
<rect x="2.81909" y="31.5752" width="19.6119" height="1.88987" rx="0.944937" fill="#36B26C"/>
<path fill-rule="evenodd" clip-rule="evenodd" d="M6.03571 5.75162C2.70228 5.75162 0 8.4539 0 11.7873V32.4551C0 35.7885 2.70228 38.4908 6.03571 38.4908H19.3371C22.6706 38.4908 25.3728 35.7885 25.3728 32.4551V11.7873C25.3728 8.4539 22.6706 5.75162 19.3371 5.75162H6.03571ZM6.34994 7.66982C4.1408 7.66982 2.34994 9.46068 2.34994 11.6698V32.5799C2.34994 34.789 4.1408 36.5799 6.34994 36.5799H19C21.2091 36.5799 23 34.789 23 32.5799V11.6698C23 9.46068 21.2091 7.66982 19 7.66982H6.34994Z" fill="#36B26C"/>
<path d="M42.6636 17.1612C42.6636 18.7471 41.7986 19.6986 39.9532 19.6986H36.8968V14.6815H39.9532C41.7986 14.6815 42.6636 15.6618 42.6636 17.1612ZM31.9662 10.587V30.8286H36.8968V23.1875H38.079L42.2888 30.8286H47.8537L43.1826 22.8127C46.2967 21.89 47.6807 19.4968 47.6807 16.9594C47.6807 13.4416 45.201 10.587 40.2416 10.587H31.9662ZM66.5193 22.7839C66.5193 17.6802 62.8862 14.5085 58.1574 14.5085C53.4575 14.5085 49.7955 17.6802 49.7955 22.7839C49.7955 27.8875 53.371 31.0592 58.0997 31.0592C62.8285 31.0592 66.5193 27.8875 66.5193 22.7839ZM54.8127 22.7839C54.8127 20.0446 56.3697 18.7759 58.1574 18.7759C59.8875 18.7759 61.5022 20.0446 61.5022 22.7839C61.5022 25.4943 59.8586 26.7918 58.0997 26.7918C56.312 26.7918 54.8127 25.4943 54.8127 22.7839ZM85.0226 14.7392H80.092V23.4759C80.092 25.6673 78.881 26.8783 76.9779 26.8783C75.1326 26.8783 73.8927 25.6673 73.8927 23.4759V14.7392H68.9909V24.1391C68.9909 28.4353 71.4995 31.0016 75.2191 31.0016C77.3816 31.0016 79.1117 30.0212 80.092 28.6372V30.8286H85.0226V14.7392ZM99.6654 30.8286H104.567V21.4287C104.567 17.1035 102.087 14.5661 98.3678 14.5661C96.2053 14.5661 94.4753 15.5177 93.4949 16.8729V14.7392H88.5643V30.8286H93.4949V22.0918C93.4949 19.9004 94.7059 18.6894 96.5801 18.6894C98.4543 18.6894 99.6654 19.9004 99.6654 22.0918V30.8286ZM107.013 22.755C107.013 27.8298 110.156 31.0592 114.106 31.0592C116.471 31.0592 118.172 29.9924 119.066 28.5218V30.8286H123.996V9.49135H119.066V16.9594C118.085 15.4888 116.24 14.5085 114.106 14.5085C110.156 14.5085 107.013 17.6802 107.013 22.755ZM119.066 22.7839C119.066 25.3501 117.422 26.763 115.548 26.763C113.703 26.763 112.03 25.3212 112.03 22.755C112.03 20.1888 113.703 18.8048 115.548 18.8048C117.422 18.8048 119.066 20.2176 119.066 22.7839ZM127.477 22.6685C127.477 28.2623 131.139 31.0304 135.839 31.0304C140.51 31.0304 144.431 28.2623 144.431 22.6685V10.587H139.501V22.6973C139.501 25.0906 138.261 26.4746 135.925 26.4746C133.59 26.4746 132.408 25.0906 132.408 22.6973V10.587H127.477V22.6685ZM152.824 17.017V14.7392H147.894V38.4984H152.824V28.5795C153.718 29.9347 155.419 31.0592 157.784 31.0592C161.734 31.0592 164.877 27.8298 164.877 22.755C164.877 17.6802 161.734 14.5085 157.784 14.5085C155.419 14.5085 153.718 15.6042 152.824 17.017ZM159.86 22.755C159.86 25.3212 158.187 26.763 156.313 26.763C154.468 26.763 152.795 25.3501 152.795 22.7839C152.795 20.2176 154.468 18.8048 156.313 18.8048C158.187 18.8048 159.86 20.1888 159.86 22.755Z" fill="#36B26C"/>
<path d="M100.946 40.3184C100.946 40.8845 100.549 41.2141 99.8984 41.2141H98.5971V39.3804H99.8646C100.507 39.3804 100.946 39.7353 100.946 40.3184ZM100.794 37.758C100.794 38.2988 100.414 38.5946 99.7885 38.5946H98.5971V36.913H99.7885C100.414 36.913 100.794 37.2257 100.794 37.758ZM101.909 40.4198C101.909 39.7184 101.402 39.0931 100.777 38.9833C101.343 38.7805 101.774 38.3495 101.774 37.6397C101.774 36.8116 101.115 36.1272 99.873 36.1272H97.6338V41.9999H99.9829C101.183 41.9999 101.909 41.3155 101.909 40.4198ZM104.79 40.893L103.48 37.344H102.407L104.241 41.9239L103.294 44.1885H104.291L107.147 37.344H106.15L104.79 40.893ZM109.765 36.913H111.337V41.9999H112.3V36.913H113.863V36.1272H109.765V36.913ZM114.518 39.6508C114.518 41.0873 115.49 42.076 116.698 42.076C117.475 42.076 118.033 41.7042 118.329 41.307V41.9999H119.301V37.344H118.329V38.02C118.042 37.6397 117.501 37.2679 116.715 37.2679C115.49 37.2679 114.518 38.2143 114.518 39.6508ZM118.329 39.6677C118.329 40.6733 117.644 41.2394 116.918 41.2394C116.2 41.2394 115.507 40.6564 115.507 39.6508C115.507 38.6453 116.2 38.1045 116.918 38.1045C117.644 38.1045 118.329 38.6706 118.329 39.6677ZM123.87 41.9999H124.825V39.2537C124.825 37.9524 124.005 37.2679 122.915 37.2679C122.357 37.2679 121.842 37.4961 121.529 37.8763V37.344H120.566V41.9999H121.529V39.3973C121.529 38.5439 121.994 38.1045 122.704 38.1045C123.405 38.1045 123.87 38.5439 123.87 39.3973V41.9999ZM129.357 41.9999H130.312V39.2537C130.312 37.9524 129.493 37.2679 128.403 37.2679C127.845 37.2679 127.329 37.4961 127.017 37.8763V37.344H126.053V41.9999H127.017V39.3973C127.017 38.5439 127.482 38.1045 128.191 38.1045C128.893 38.1045 129.357 38.5439 129.357 39.3973V41.9999ZM131.22 39.6508C131.22 41.0873 132.192 42.076 133.4 42.076C134.177 42.076 134.735 41.7042 135.031 41.307V41.9999H136.003V37.344H135.031V38.02C134.744 37.6397 134.203 37.2679 133.417 37.2679C132.192 37.2679 131.22 38.2143 131.22 39.6508ZM135.031 39.6677C135.031 40.6733 134.346 41.2394 133.62 41.2394C132.901 41.2394 132.209 40.6564 132.209 39.6508C132.209 38.6453 132.901 38.1045 133.62 38.1045C134.346 38.1045 135.031 38.6706 135.031 39.6677ZM136.947 39.6508C136.947 41.0873 137.919 42.076 139.144 42.076C139.904 42.076 140.462 41.7211 140.758 41.2986V41.9999H141.729V35.7469H140.758V37.9946C140.403 37.5552 139.761 37.2679 139.152 37.2679C137.919 37.2679 136.947 38.2143 136.947 39.6508ZM140.758 39.6677C140.758 40.6733 140.073 41.2394 139.347 41.2394C138.628 41.2394 137.935 40.6564 137.935 39.6508C137.935 38.6453 138.628 38.1045 139.347 38.1045C140.073 38.1045 140.758 38.6706 140.758 39.6677ZM142.995 41.9999H143.958V37.344H142.995V41.9999ZM143.485 36.7271C143.823 36.7271 144.093 36.4567 144.093 36.1103C144.093 35.7638 143.823 35.4934 143.485 35.4934C143.138 35.4934 142.868 35.7638 142.868 36.1103C142.868 36.4567 143.138 36.7271 143.485 36.7271Z" fill="#36B26C"/>
</svg>
